<svg width="631" height="290" viewBox="0 0 631 290" fill="none" xmlns="http://www.w3.org/2000/svg">
<path d="M285.238 20.0502C285.238 20.7502 285.238 21.3502 285.238 22.0502C286.279 22.3502 287.32 22.7502 288.361 23.0502C290.131 25.6502 291.901 28.3502 293.566 31.0502C294.295 31.7502 294.295 31.7502 297.73 35.0502C306.059 50.9502 308.245 67.5502 310.223 85.0502C310.431 86.5502 310.639 87.9502 310.847 89.4502C311.264 92.9502 311.472 96.3502 311.68 99.8502C312.305 107.05 312.305 107.05 313.242 112.05C314.699 119.55 315.22 126.95 315.948 134.45C317.822 154.75 317.822 154.75 319.592 158.05C319.904 162.95 320.112 167.85 320.321 172.75C320.633 177.05 320.633 177.05 321.674 179.05C322.194 183.25 322.507 187.45 322.923 191.75C324.068 197.85 326.462 201.65 331.043 206.05C332.813 213.55 334.166 220.25 334.062 227.95C334.062 228.65 334.062 228.65 334.166 232.05C335.832 232.75 337.601 233.35 339.371 234.05C340.412 236.05 340.412 236.05 340.412 242.05C331.251 247.95 323.027 246.55 312.305 245.05C308.453 246.75 304.705 248.35 300.854 250.05C298.771 249.75 296.689 249.35 294.607 249.05C287.737 250.15 281.803 252.55 275.869 256.05C276.91 261.05 276.91 261.05 278.992 262.05C280.866 267.75 281.595 273.05 281.074 279.05C279.721 279.75 278.368 280.35 276.91 281.05C276.91 281.75 276.91 282.35 276.91 283.05C263.377 288.25 247.97 282.85 234.853 278.55C229.128 276.75 223.402 275.45 217.572 274.05C215.49 273.35 213.408 272.75 211.326 272.05C206.746 272.95 202.269 273.95 197.793 275.05C193.629 275.75 189.569 276.55 185.405 277.25C179.783 278.35 174.266 279.65 168.645 281.05C161.774 282.65 154.799 283.85 147.824 285.05C142.619 286.05 138.247 287.15 133.25 289.05C129.815 289.05 126.275 289.05 122.84 289.05C120.654 289.25 118.572 289.55 116.386 289.75C106.392 290.15 97.6473 287.75 88.0699 285.45C82.2402 284.05 82.2402 284.05 74.9531 283.05C72.5588 281.05 70.0604 279.05 67.666 277.05C66.2086 276.75 64.7512 276.45 63.2938 276.15C57.9846 274.75 57.5682 272.55 55.1738 268.05C54.341 267.55 54.341 267.55 49.9688 265.05C49.24 263.45 48.6154 261.75 47.8867 260.05C46.2211 258.45 44.4514 256.75 42.6816 255.05C41.2242 252.05 39.8709 249.05 38.5176 246.05C37.7889 245.25 37.7889 245.25 34.3535 241.05C33.833 239.35 33.4166 237.65 32.8961 235.95C31.2305 230.05 31.2305 230.05 28.0033 224.45C24.9844 219.15 24.4639 215.95 23.9434 210.05C23.3187 208.95 22.6941 207.95 21.9654 206.85C19.5711 202.65 18.426 198.85 17.1768 194.25C15.3029 187.65 13.2209 181.35 10.4102 175.05C7.91172 169.15 7.91171 163.85 7.5994 157.55C7.183 151.25 5.62148 145.25 4.16406 139.05C3.53945 136.15 3.01894 133.35 2.49843 130.45C1.76972 126.65 0.936914 122.85 0 119.05C0.312305 115.25 0.520495 111.35 0.8328 107.55C1.041 102.95 0.832806 98.6502 0.4164 94.1502C0.312298 91.7502 0.104102 89.4502 0 87.0502C0.520508 86.8502 0.520508 86.8502 3.12305 86.0502C3.85176 83.4502 4.58047 80.7502 5.20508 78.0502C10.9307 61.7502 20.6121 47.1502 35.3945 37.0502C37.1643 35.8502 38.8299 34.6502 40.7037 33.3502C45.8047 30.0502 45.8047 30.0502 53.0918 27.0502C54.1328 26.3502 55.1738 25.7502 56.2148 25.0502C60.3789 23.9502 64.543 23.0502 68.707 22.0502C75.0572 20.5502 81.1992 19.0502 87.4453 17.0502C91.2971 16.7502 95.0447 16.3502 98.8965 16.0502C102.332 15.4502 105.871 14.7502 109.307 14.0502C111.909 13.7502 114.408 13.3502 117.01 13.0502C123.881 12.0502 123.881 12.0502 127.004 10.0502C130.856 10.0502 134.603 10.0502 138.455 10.0502C140.849 9.35024 143.244 8.75024 145.742 8.05024C150.635 7.65024 155.424 7.35024 160.316 7.05024C161.566 6.85024 161.566 6.85024 167.604 6.05024C171.663 5.55024 175.619 5.05024 179.679 4.65024C186.55 3.75024 193.525 2.95024 200.396 1.95024C230.377 -1.94976 262.44 -1.84976 285.238 20.0502Z" fill="#A94727"/>
<path d="M142.619 24.0503C146.575 30.3503 146.887 35.3503 147.824 42.6503C148.032 43.9503 148.24 45.3503 148.449 46.7503C148.761 49.6503 149.177 52.5503 149.594 55.4503C152.613 78.0503 155.736 100.55 160.316 122.95C161.565 129.15 162.398 134.75 162.398 141.05C156.569 144.45 151.572 145.55 145.013 147.15C142.515 147.75 140.016 148.35 137.414 148.95C134.603 149.55 131.897 150.25 129.19 150.85C123.464 152.25 117.843 153.55 112.117 154.85C110.66 155.25 109.307 155.55 107.745 155.95C90.5682 160.05 73.3915 164.35 56.2147 168.75C54.0286 169.25 51.8424 169.85 49.6563 170.45C47.7825 170.95 45.8046 171.35 43.8266 171.85C38.5174 173.05 33.6247 174.05 28.1073 174.05C24.0473 167.55 23.2145 161.05 21.8612 153.75C21.5489 152.25 21.3407 150.75 21.0284 149.25C14.8864 115.15 8.8485 79.0503 36.5395 51.8503C63.0854 31.1503 108.994 21.2503 142.619 24.0503Z" fill="#FEE2B1"/>
<path d="M164.48 154.05C166.354 158.45 167.499 162.45 168.749 167.05C168.957 167.85 168.957 167.85 169.894 171.75C170.31 173.45 170.726 175.05 171.143 176.75C175.619 194.05 175.619 194.05 177.805 200.75C179.055 205.05 179.055 205.05 179.055 212.05C179.783 212.05 180.408 212.05 181.137 212.05C182.282 215.05 183.323 218.05 184.26 221.05C184.884 222.85 185.509 224.75 186.133 226.65C186.758 228.65 187.383 230.65 188.007 232.65C188.32 233.65 188.32 233.65 189.985 238.55C194.67 253.25 194.67 253.25 194.67 260.05C159.483 274.55 106.288 284.25 71.83 265.05C51.6343 249.85 44.5554 227.55 36.3313 205.15C35.8108 203.65 35.2903 202.25 34.7698 200.85C31.1263 190.55 31.1263 190.55 32.2714 186.05C37.6847 183.85 42.3692 182.25 47.9907 180.85C49.7604 180.35 51.4261 179.95 53.1958 179.55C54.9655 179.05 56.8393 178.65 58.7132 178.15C62.669 177.15 66.5208 176.25 70.4766 175.25C72.5587 174.75 74.6407 174.25 76.8268 173.65C89.9436 170.35 103.06 167.05 116.177 163.65C122.215 162.05 128.253 160.55 134.291 159.05C136.581 158.45 138.871 157.85 141.162 157.25C143.452 156.75 145.638 156.15 147.928 155.65C148.969 155.35 148.969 155.35 154.174 154.05C159.275 153.05 159.275 153.05 164.48 154.05Z" fill="#FE7E4D"/>
<path d="M228.438 13.6753C229.895 13.6753 231.353 13.6753 232.81 13.6753C255.088 13.7753 271.536 21.8753 284.028 39.8753C295.479 61.5753 298.29 85.9753 298.811 110.075C294.23 114.375 285.069 114.375 278.823 115.475C246.552 121.475 214.488 128.575 182.841 136.975C178.053 138.075 178.053 138.075 173.889 137.075C170.349 126.975 168.996 116.375 167.122 105.875C166.914 104.775 166.914 104.775 165.873 98.6753C163.27 83.9753 161.084 69.2753 159.731 54.3753C159.314 50.0753 159.314 50.0753 158.273 49.0753C154.63 24.5753 154.63 24.5753 158.273 21.0753C166.497 19.3753 174.826 18.2753 183.258 17.0753C185.34 16.7753 187.526 16.4753 189.712 16.0753C202.621 14.4753 215.425 13.7753 228.438 13.6753Z" fill="#FE7E4D"/>
<path d="M298.771 123.05C300.541 128.95 301.582 134.25 302.415 140.25C302.623 142.25 302.936 144.15 303.248 146.25C303.456 148.25 303.768 150.35 304.081 152.45C304.289 154.55 304.601 156.55 304.913 158.65C309.286 190.95 309.286 190.95 306.059 194.05C304.185 194.25 302.415 194.55 300.437 194.85C285.759 197.45 277.535 202.95 271.705 216.05C270.872 224.65 272.642 229.55 276.91 237.05C276.91 238.35 276.91 239.65 276.91 241.05C272.017 243.05 267.229 245.05 262.336 247.05C258.38 253.45 259.005 256.65 262.44 263.25C264.418 267.05 264.418 267.05 263.377 271.05C252.55 270.05 242.453 266.05 232.251 262.55C226.109 260.55 220.695 259.05 214.241 258.55C209.244 258.05 209.244 258.05 206.121 253.05C176.764 176.35 176.764 176.35 175.932 151.05C184.884 142.45 204.872 140.65 216.948 137.85C219.03 137.35 221.008 136.95 223.09 136.45C238.809 132.75 254.737 129.45 270.664 126.25C272.85 125.85 275.036 125.45 277.327 124.95C279.409 124.55 281.491 124.15 283.573 123.75C285.342 123.35 287.216 123.05 288.986 122.65C293.566 122.05 293.566 122.05 298.771 123.05Z" fill="#FEE2B0"/>
<path d="M142.619 24.0503C146.575 30.3503 146.887 35.3503 147.824 42.6503C148.032 43.9503 148.24 45.3503 148.449 46.7503C148.761 49.6503 149.177 52.5503 149.594 55.4503C152.613 78.0503 155.736 100.55 160.316 122.95C161.565 129.15 162.398 134.75 162.398 141.05C156.569 144.45 151.572 145.55 145.013 147.15C142.515 147.75 140.016 148.35 137.414 148.95C134.603 149.55 131.897 150.25 129.19 150.85C123.464 152.25 117.843 153.55 112.117 154.85C110.66 155.25 109.307 155.55 107.745 155.95C90.5682 160.05 73.3915 164.35 56.2147 168.75C54.0286 169.25 51.8424 169.85 49.6563 170.45C47.7825 170.95 45.8046 171.35 43.8266 171.85C38.5174 173.05 33.6247 174.05 28.1073 174.05C24.0473 167.55 23.2145 161.05 21.8612 153.75C21.5489 152.25 21.3407 150.75 21.0284 149.25C14.8864 115.15 8.8485 79.0503 36.5395 51.8503C63.0854 31.1503 108.994 21.2503 142.619 24.0503ZM35.3944 74.0503C24.5678 100.35 29.7729 129.15 36.4354 156.05C42.161 161.55 54.3409 156.15 61.3157 154.35C81.6155 149.35 101.915 144.85 122.319 140.45C123.464 140.25 123.464 140.25 129.606 138.85C130.751 138.65 130.751 138.65 136.269 137.45C141.578 136.05 141.578 136.05 146.783 133.05C146.679 128.25 146.679 128.25 145.742 122.05C145.43 119.85 145.117 117.65 144.805 115.35C144.597 114.15 144.597 114.15 143.66 107.95C143.452 106.55 143.348 105.25 143.14 103.85C142.515 99.6503 141.786 95.4503 141.162 91.1503C140.745 88.3503 140.329 85.5503 139.912 82.7503C139.288 78.6503 138.663 74.5503 138.039 70.4503C137.206 64.4503 136.269 58.4503 135.436 52.3503C135.228 51.4503 135.228 51.4503 134.603 46.6503C134.291 44.9503 134.083 43.3503 133.874 41.6503C133.25 38.0503 133.25 38.0503 132.209 37.0503C99.2087 35.6503 52.5712 43.4503 35.3944 74.0503Z" fill="#FEF5E2"/>
<path d="M298.771 123.05C300.541 128.95 301.582 134.25 302.415 140.25C302.623 142.25 302.936 144.15 303.248 146.25C303.456 148.25 303.768 150.35 304.081 152.45C304.289 154.55 304.601 156.55 304.913 158.65C309.286 190.95 309.286 190.95 306.059 194.05C301.374 194.45 301.374 194.45 296.689 194.05C294.087 189.05 293.775 184.85 293.15 179.35C292.838 177.25 292.629 175.05 292.317 172.85C292.213 171.75 292.213 171.75 291.484 166.15C290.964 161.75 290.443 157.35 289.819 152.85C289.611 150.95 289.402 148.95 289.09 146.95C288.361 142.05 288.361 142.05 286.279 137.05C279.513 137.15 272.954 138.55 266.292 139.85C265.459 140.05 265.459 140.05 260.879 140.95C259.942 141.15 259.942 141.15 255.153 142.15C253.279 142.55 251.301 142.95 249.323 143.35C233.812 146.65 218.301 150.05 202.998 154.05C202.061 154.25 202.061 154.25 197.585 155.45C193.629 157.05 193.629 157.05 192.588 162.05C208.828 237.85 208.828 237.85 219.654 243.05C237.664 245.55 237.664 245.55 243.494 240.45C244.535 238.95 245.68 237.55 246.721 236.05C254.632 232.15 261.711 229.85 270.664 230.05C275.869 235.05 275.869 235.05 277.951 240.05C273.267 242.65 273.267 242.65 267.541 245.05C261.295 248.05 261.295 248.05 259.213 252.05C260.254 259.05 260.254 259.05 262.44 263.25C264.418 267.05 264.418 267.05 263.377 271.05C252.55 270.05 242.453 266.05 232.251 262.55C226.109 260.55 220.695 259.05 214.241 258.55C209.244 258.05 209.244 258.05 206.121 253.05C176.764 176.35 176.764 176.35 175.932 151.05C184.884 142.45 204.872 140.65 216.948 137.85C219.03 137.35 221.008 136.95 223.09 136.45C238.809 132.75 254.737 129.45 270.664 126.25C272.85 125.85 275.036 125.45 277.327 124.95C279.409 124.55 281.491 124.15 283.573 123.75C285.342 123.35 287.216 123.05 288.986 122.65C293.566 122.05 293.566 122.05 298.771 123.05Z" fill="#FEF6E1"/>
<path d="M430.135 134.488C432.529 134.588 435.027 134.688 437.526 134.688C457.305 135.588 457.305 135.588 464.28 143.088C467.195 151.388 467.611 157.988 466.674 166.688C466.466 168.388 466.258 169.988 466.154 171.688C464.905 178.488 461.261 182.588 455.952 187.088C448.457 189.488 441.586 189.288 433.674 189.288C432.113 189.288 430.551 189.288 428.99 189.288C425.658 189.288 422.327 189.288 419.1 189.288C413.999 189.288 409.002 189.288 403.901 189.288C400.674 189.288 397.551 189.288 394.324 189.288C393.595 189.288 393.595 189.288 389.743 189.288C369.86 189.288 369.86 189.288 365.384 182.088C360.387 167.788 360.803 149.788 367.466 136.088C372.15 134.688 372.15 134.688 377.876 135.088C379.958 135.088 382.04 135.088 384.122 135.088C386.204 135.088 388.286 135.088 390.368 135.088C391.201 134.988 391.201 134.988 395.469 134.588C406.92 133.488 418.579 134.088 430.135 134.488ZM392.45 156.088C391.409 160.988 391.409 164.188 392.45 169.088C401.09 171.088 409.835 171.188 418.684 171.288C420.661 171.288 422.535 171.288 424.617 171.288C429.926 171.088 429.926 171.088 437.214 169.088C439.192 165.188 438.567 161.188 438.255 157.088C427.012 148.988 405.15 152.588 392.45 156.088Z" fill="#BA3F1C"/>
<path d="M562.148 55.0503C570.685 59.7503 571.934 64.8503 572.559 74.0503C571.622 78.4503 571.622 78.4503 570.477 82.0503C570.477 83.6503 570.477 85.3503 570.477 87.0503C574.953 88.6503 574.953 88.6503 579.846 90.0503C580.887 91.0503 581.928 92.0503 582.969 93.0503C587.133 94.7503 591.297 96.4503 595.461 98.0503C612.013 104.75 612.013 104.75 616.281 113.05C616.281 120.15 614.199 123.05 608.994 128.05C602.019 129.75 598.48 128.45 592.338 125.05C589.944 124.05 587.549 123.05 585.051 122.05C582.969 120.75 580.887 119.45 578.805 118.05C576.827 117.05 574.849 116.05 572.871 114.95C567.354 112.05 567.354 112.05 564.23 109.05C557.984 106.05 557.984 106.05 552.779 107.05C549.24 109.65 545.804 112.35 542.369 115.05C516.864 132.05 516.864 132.05 501.77 132.05C493.754 126.15 493.754 126.15 492.4 121.05C495.732 113.65 497.71 111.35 505.205 108.05C525.192 97.9503 535.082 86.7503 539.142 65.1503C542.577 53.0503 551.218 54.3503 562.148 55.0503Z" fill="#BA3F1C"/>
<path d="M392.463 56.0503C398.605 56.0503 404.851 55.9503 410.993 55.8503C416.406 56.0503 416.406 56.0503 423.693 58.0503C426.816 64.0503 426.816 64.0503 426.816 71.0503C421.611 77.3503 420.362 76.6503 412.346 76.6503C411.305 76.6503 411.305 76.6503 406.1 76.6503C403.914 76.6503 401.832 76.6503 399.646 76.6503C395.378 76.6503 391.109 76.6503 386.945 76.7503C385.072 76.7503 383.198 76.7503 381.22 76.6503C376.848 77.0503 376.848 77.0503 374.766 80.0503C374.557 83.4503 374.557 86.7503 374.557 90.1503C374.557 91.9503 374.557 93.8503 374.557 95.6503C374.766 100.05 374.766 100.05 375.807 101.05C381.74 101.15 387.57 101.15 393.4 101.15C395.065 101.15 396.731 101.15 398.397 101.15C405.163 101.15 411.618 101.15 418.28 100.25C422.652 100.05 422.652 100.05 427.857 104.05C429.107 107.95 429.107 107.95 428.898 112.05C414.428 127.05 381.532 126.95 361.857 123.15C353.945 120.85 348.844 117.45 345.617 110.05C343.223 94.1503 341.974 75.2503 350.822 61.0503C363.314 53.8503 378.513 54.9503 392.463 56.0503Z" fill="#BB3E1C"/>
<path d="M569.436 127.05C572.142 132.35 571.726 136.45 571.622 142.25C571.622 144.35 571.622 146.35 571.622 148.35C571.518 149.95 571.518 151.45 571.518 153.05C573.912 152.85 576.202 152.65 578.701 152.45C585.155 152.05 591.089 152.35 597.543 153.05C599.625 152.75 601.707 152.35 603.789 152.05C606.912 152.35 610.035 152.75 613.158 153.05C614.824 152.75 616.594 152.35 618.363 152.05C625.859 154.45 626.796 156.25 629.814 163.05C627.628 169.25 626.067 171.95 619.404 174.05C605.142 175.25 590.985 175.15 576.723 175.05C575.473 175.05 575.473 175.05 569.331 174.95C564.126 174.95 558.921 174.95 553.82 174.85C545.909 174.75 537.997 174.75 529.981 174.75C524.984 174.65 519.987 174.65 514.886 174.55C512.596 174.55 510.202 174.55 507.703 174.55C505.517 174.55 503.331 174.55 501.041 174.45C499.167 174.45 497.189 174.45 495.211 174.45C488.653 173.95 485.009 172.85 481.99 167.05C481.99 160.05 481.99 160.05 486.154 155.05C492.504 153.05 496.564 152.95 503.227 153.15C505.309 153.15 507.391 153.15 509.473 153.25C513.949 153.35 518.322 153.45 522.694 153.55C524.776 153.55 526.858 153.65 529.044 153.65C530.918 153.75 532.792 153.75 534.77 153.85C536.227 153.55 537.789 153.35 539.246 153.05C541.224 146.55 541.224 144.35 540.287 138.05C541.432 130.25 542.786 127.55 549.864 123.65C557.776 121.15 562.461 123.05 569.436 127.05Z" fill="#BA3F1D"/>
<path d="M319.592 177.05C323.443 180.75 322.507 186.75 322.923 191.75C324.068 197.85 326.462 201.65 331.043 206.05C332.813 213.55 334.166 220.25 334.062 227.95C334.062 229.25 334.166 230.65 334.166 232.05C335.832 232.75 337.601 233.35 339.371 234.05C340.412 236.05 340.412 236.05 340.412 242.05C331.251 247.95 323.027 246.55 312.305 245.05C308.453 246.75 304.705 248.35 300.853 250.05C298.771 249.75 296.689 249.35 294.607 249.05C292.525 249.05 290.443 249.05 288.361 249.05C288.882 248.85 288.882 248.85 291.484 248.05C291.484 247.05 291.484 246.05 291.484 245.05C289.402 244.75 287.32 244.35 285.238 244.05C277.222 240.95 273.371 234.75 270.664 227.05C269.727 214.45 273.579 206.55 284.197 199.05C295.752 193.05 305.954 191.45 317.51 197.05C318.863 197.35 320.216 197.75 321.674 198.05C320.945 191.15 320.32 184.15 319.592 177.05Z" fill="#89A05C"/>
<path d="M465.334 49.0504C469.29 55.0504 469.915 59.4504 469.706 66.4504C469.394 74.9504 469.394 74.9504 470.539 77.0504C474.703 77.2504 478.867 77.4504 483.031 77.6504C489.902 78.3504 492.088 80.5504 495.524 86.0504C494.378 92.6504 493.337 94.6504 488.236 99.0504C482.927 99.7504 478.034 99.4504 472.621 99.2504C471.268 99.5504 469.915 99.7504 468.457 100.05C467.312 103.65 467.312 103.65 467.416 108.05C466.687 122.55 466.687 122.55 463.252 128.05C455.236 129.95 447.012 130.05 439.309 127.05C433.271 115.45 437.018 93.9503 437.018 81.3503C436.914 78.9503 436.914 76.4504 436.914 73.9504C436.914 71.5504 436.914 69.2504 436.914 66.7504C436.914 64.6504 436.914 62.5504 436.81 60.3504C437.331 53.0504 438.996 50.8504 445.555 47.0504C452.634 44.7504 458.984 45.7504 465.334 49.0504Z" fill="#BA3D1B"/>
<path d="M61.4198 179.05C61.4198 179.75 61.4198 180.35 61.4198 181.05C59.2337 182.15 57.0475 183.15 54.7573 184.25C47.8866 188.05 47.8866 188.05 46.8456 195.05C51.9466 213.45 58.505 233.55 71.83 248.05C72.9751 249.25 74.0161 250.45 75.1612 251.75C101.395 273.65 145.326 262.05 174.891 253.05C182.178 250.05 182.178 250.05 183.219 248.05C182.802 238.15 181.033 228.75 179.055 219.05C179.055 218.05 179.055 217.05 179.055 216.05C180.096 216.05 181.137 216.05 182.178 216.05C183.635 219.45 183.635 219.45 185.197 224.15C185.717 225.85 186.342 227.55 186.862 229.25C187.174 230.15 187.174 230.15 188.632 234.65C188.944 235.55 188.944 235.55 190.402 240.05C194.67 253.25 194.67 253.25 194.67 260.05C159.483 274.55 106.288 284.25 71.83 265.05C51.6343 249.85 44.5554 227.55 36.3313 205.15C35.8108 203.65 35.2903 202.25 34.7698 200.85C31.1263 190.55 31.1263 190.55 32.2714 186.05C37.6847 183.85 42.3692 182.25 47.9907 180.85C49.4481 180.55 50.9056 180.15 52.363 179.85C56.2147 179.05 56.2147 179.05 61.4198 179.05Z" fill="#FDF5E1"/>
<path d="M228.438 13.6753C229.895 13.6753 231.353 13.6753 232.81 13.6753C255.088 13.7753 271.536 21.8753 284.028 39.8753C295.479 61.5753 298.29 85.9753 298.811 110.075C292.981 115.675 280.489 115.075 272.785 115.075C272.785 114.375 272.785 113.775 272.785 113.075C275.804 111.375 278.927 109.675 282.154 108.075C290.691 99.8753 281.738 70.0753 279.239 59.8753C273.098 41.7753 264.561 31.3753 245.406 25.7753C221.775 22.4753 185.652 24.5753 163.479 33.0753C162.438 35.3753 161.397 37.6753 160.356 40.0753C159.314 40.0753 158.273 40.0753 157.232 40.0753C154.838 24.2753 154.838 24.2753 158.273 21.0753C166.498 19.3753 174.826 18.2753 183.258 17.0753C185.34 16.7753 187.526 16.4753 189.712 16.0753C202.621 14.4753 215.425 13.7753 228.438 13.6753Z" fill="#FDF4DF"/>
<path d="M489.277 208.05C494.691 213.25 500.312 218.95 502.81 226.05C503.851 225.05 504.892 224.05 505.933 223.05C506.662 223.05 507.287 223.05 508.016 223.05C508.744 221.45 509.369 219.75 510.098 218.05C515.511 210.45 515.511 210.45 520.508 208.05C525.713 209.05 525.713 209.05 527.795 211.05C531.751 241.25 531.751 241.25 523.631 249.05C517.385 248.05 517.385 248.05 516.344 247.05C516.24 241.75 516.344 236.35 516.344 231.05C515.303 231.05 514.262 231.05 513.221 231.05C512.492 232.65 511.867 234.35 511.139 236.05C508.744 240.35 508.744 240.35 505.933 244.05C498.438 244.05 497.501 240.65 493.441 235.05C493.441 234.35 493.441 233.75 493.441 233.05C491.359 234.05 491.359 234.05 490.943 239.45C490.318 245.05 490.318 245.05 487.195 248.05C480.949 248.05 480.949 248.05 479.908 247.05C476.473 208.05 476.473 208.05 489.277 208.05Z" fill="#AE4626"/>
<path d="M626.691 216.05C631.376 225.65 631.792 231.35 625.963 240.35C618.051 248.85 610.035 249.05 598.584 249.05C586.508 240.95 584.01 235.75 584.01 222.05C595.461 205.75 610.556 203.65 626.691 216.05ZM596.502 224.05C596.502 232.05 596.502 232.05 599.625 237.05C603.997 238.45 607.537 238.35 612.117 238.05C618.155 232.25 617.426 229.05 616.281 221.05C609.098 218.75 601.395 217.05 596.502 224.05Z" fill="#AC4625"/>
<path d="M395.456 207.675C405.866 208.275 410.863 211.375 417.421 219.075C420.961 229.875 418.566 235.575 411.175 244.075C401.181 248.875 392.02 248.175 380.986 248.075C380.986 247.375 380.986 246.775 380.986 246.075C380.361 246.075 379.632 246.075 378.904 246.075C378.383 240.975 378.071 236.075 377.863 231.075C377.863 229.575 377.758 228.175 377.758 226.675C377.55 219.675 377.654 215.375 380.986 209.075C385.774 207.875 390.563 207.975 395.456 207.675ZM390.355 221.075C389.834 234.575 389.834 234.575 392.437 237.075C398.683 238.075 398.683 238.075 404.929 234.075C407.011 230.075 407.011 230.075 405.97 223.075C402.014 219.275 394.831 216.775 390.355 221.075Z" fill="#AC4424"/>
<path d="M569.436 210.05C572.559 214.05 572.559 214.05 571.518 219.05C566.937 221.95 564.23 220.25 559.025 219.05C556.943 219.05 554.861 219.05 552.779 219.05C554.861 222.05 554.861 222.05 559.754 222.85C565.896 224.15 570.685 226.45 573.6 232.05C574.12 238.95 574.12 240.45 569.436 246.05C561.212 250.05 553.092 249.45 544.451 247.05C542.786 245.75 541.016 244.45 539.246 243.05C540.287 238.05 540.287 238.05 544.451 236.05C546.533 236.75 548.615 237.35 550.697 238.05C556.943 238.05 556.943 238.05 560.066 236.05C556.943 234.05 556.943 234.05 551.322 232.85C545.492 231.05 545.492 231.05 540.287 225.05C540.287 217.05 540.287 217.05 544.451 211.05C553.404 207.35 560.171 206.95 569.436 210.05Z" fill="#AB4323"/>
<path d="M453.883 211.05C455.965 214.55 455.965 214.55 457.943 218.85C458.671 220.35 459.296 221.85 460.025 223.35C460.441 224.15 460.441 224.15 462.211 228.05C463.668 230.85 465.022 233.55 466.479 236.35C469.498 243.05 469.498 243.05 468.457 247.05C466.375 247.75 464.293 248.35 462.211 249.05C459.4 246.35 456.694 243.75 453.883 241.05C441.391 241.05 441.391 241.05 435.145 247.05C429.939 249.05 429.939 249.05 425.775 246.05C426.712 240.55 428.17 236.15 430.356 230.95C430.668 230.15 430.668 230.15 432.23 226.15C434.104 222.05 434.104 222.05 437.227 218.05C438.268 215.75 439.309 213.45 440.35 211.05C446.075 207.35 447.949 207.65 453.883 211.05ZM445.555 224.05C443.473 228.05 443.473 228.05 444.514 232.05C449.719 231.05 449.719 231.05 450.76 229.05C450.031 227.45 449.406 225.75 448.678 224.05C447.637 224.05 446.596 224.05 445.555 224.05Z" fill="#AC4324"/>
<path d="M154.07 215.05C156.673 220.15 155.32 223.75 152.509 228.15C143.66 237.65 133.771 239.75 120.758 239.05C111.909 236.95 108.994 235.95 103.061 229.05C104.102 225.05 104.102 225.05 105.143 224.05C111.389 224.05 111.389 224.05 115.136 225.55C124.818 228.75 133.562 228.45 141.578 222.05C144.597 218.25 144.597 218.25 146.783 215.05C148.865 214.05 148.865 214.05 154.07 215.05Z" fill="#FEE7C3"/>
<path d="M114.512 104.05C119.717 105.05 119.717 105.05 121.799 107.05C119.925 118.15 111.285 123.75 100.979 128.05C87.133 128.75 80.0541 128.75 70.7891 118.05C71.1014 116.45 71.5178 114.75 71.8301 113.05C78.0762 112.05 78.0762 112.05 82.032 114.45C89.215 118.65 94.316 118.95 102.228 116.15C107.641 112.75 110.556 108.95 114.512 104.05Z" fill="#A44525"/>
<path d="M245.68 82.0503C246.721 83.0503 246.721 83.0503 245.68 90.0503C237.039 99.1503 227.046 102.45 214.449 100.05C207.058 97.0503 202.79 95.0503 197.793 89.0503C198.105 87.0503 198.522 85.0503 198.834 83.0503C206.642 81.7503 208.203 83.7503 214.449 88.0503C223.194 90.8503 229.752 88.6503 236.935 83.2503C240.475 81.0503 240.475 81.0503 245.68 82.0503Z" fill="#FEE6C2"/>
<path d="M264.418 194.05C265.875 201.05 263.377 202.25 258.172 207.05C247.553 212.95 239.225 213.25 227.982 208.05C223.818 203.05 223.818 203.05 224.859 199.05C229.023 198.05 229.023 198.05 232.875 199.95C241.203 203.85 247.345 202.65 255.049 198.05C260.254 193.05 260.254 193.05 264.418 194.05Z" fill="#A44625"/>
<path d="M483.031 158.05C483.344 158.05 483.76 158.05 484.072 158.05C484.176 159.65 484.28 161.25 484.489 162.85C485.113 168.05 485.113 168.05 488.236 171.05C492.504 171.35 496.669 171.45 500.937 171.45C502.29 171.45 502.29 171.45 509.057 171.55C511.971 171.55 514.99 171.55 517.905 171.55C520.924 171.55 523.943 171.55 526.962 171.65C534.874 171.65 542.786 171.65 550.697 171.75C558.817 171.75 566.833 171.75 574.953 171.85C590.776 171.95 606.704 171.95 622.527 172.05C611.909 178.85 589.111 175.15 576.723 175.05C575.473 175.05 575.473 175.05 569.331 174.95C564.126 174.95 558.921 174.95 553.82 174.85C545.909 174.75 537.997 174.75 529.981 174.75C524.984 174.65 519.987 174.65 514.886 174.55C512.596 174.55 510.202 174.55 507.703 174.55C505.517 174.55 503.331 174.55 501.041 174.45C499.167 174.45 497.189 174.45 495.211 174.45C488.653 173.95 485.009 172.85 481.99 167.05C481.99 160.05 481.99 160.05 483.031 158.05Z" fill="#C85425"/>
<path d="M142.619 188.05C148.865 192.85 148.865 192.85 148.865 201.05C143.66 206.05 143.66 206.05 137.414 206.05C131.168 200.05 131.168 200.05 131.168 193.05C136.373 188.05 136.373 188.05 142.619 188.05Z" fill="#FEEAC8"/>
<path d="M72.8711 82.0503C79.1172 86.8503 79.1172 86.8503 79.1172 95.0503C73.9121 100.05 73.9121 100.05 67.666 100.05C62.4609 95.0503 62.4609 95.0503 61.4199 88.0503C66.625 82.0503 66.625 82.0503 72.8711 82.0503Z" fill="#A64625"/>
<path d="M108.266 198.05C112.43 202.05 112.43 202.05 113.471 209.05C109.723 215.05 109.723 215.05 100.979 215.05C95.7734 209.05 95.7734 209.05 95.7734 203.05C100.874 196.85 100.874 196.85 108.266 198.05Z" fill="#FEEBCB"/>
<path d="M110.348 77.0503C115.553 82.0503 115.553 82.0503 115.553 89.0503C110.348 94.0503 110.348 94.0503 104.102 94.0503C98.8965 89.0503 98.8965 89.0503 98.8965 81.0503C104.102 76.0503 104.102 76.0503 110.348 77.0503Z" fill="#A64727"/>
<path d="M209.244 57.0503C213.408 61.0503 213.408 61.0503 213.408 69.0503C208.203 74.0503 208.203 74.0503 201.957 74.0503C196.752 69.0503 196.752 69.0503 196.752 62.0503C201.957 57.0503 201.957 57.0503 209.244 57.0503Z" fill="#FDEBC8"/>
<path d="M241.516 56.0503C246.721 61.0503 246.721 61.0503 246.721 68.0503C241.516 73.0503 241.516 73.0503 234.229 72.0503C230.064 67.0503 230.064 67.0503 230.064 61.0503C235.27 56.0503 235.27 56.0503 241.516 56.0503Z" fill="#FEE9C6"/>
<path d="M229.023 171.05C233.188 177.05 233.188 177.05 232.146 182.05C226.941 187.05 226.941 187.05 219.654 186.05C216.531 182.05 216.531 182.05 216.531 175.05C221.736 170.05 221.736 170.05 229.023 171.05Z" fill="#A64827"/>
<path d="M403.036 150.554C403.973 150.554 403.973 150.554 408.761 150.554C409.802 150.554 409.802 150.554 414.799 150.654C415.84 150.654 415.84 150.654 420.941 150.554C435.828 150.654 435.828 150.654 439.263 154.054C440.096 168.354 440.096 168.354 436.14 172.054C432.08 172.454 432.08 172.454 426.875 172.454C425.001 172.454 423.127 172.454 421.254 172.454C420.317 172.354 420.317 172.354 415.32 172.354C413.446 172.354 411.468 172.354 409.49 172.354C394.916 172.354 394.916 172.354 391.376 170.054C389.294 158.054 388.566 150.554 403.036 150.554ZM392.417 156.054C391.48 160.954 391.376 164.154 392.417 169.054C401.058 171.154 409.802 171.254 418.651 171.254C420.629 171.254 422.607 171.254 424.585 171.254C429.894 171.054 429.894 171.054 437.181 169.054C439.263 165.254 438.534 161.254 438.222 157.054C427.083 148.954 405.222 152.554 392.417 156.054Z" fill="#CC5326"/>
<path d="M261.295 167.05C266.5 172.05 266.5 172.05 266.5 179.05C260.254 184.05 260.254 184.05 255.049 183.05C250.885 179.05 250.885 179.05 250.885 171.05C255.049 167.05 255.049 167.05 261.295 167.05Z" fill="#A64827"/>
<path d="M480.624 95.9878C482.394 95.9878 484.268 95.9878 486.141 95.9878C487.495 95.9878 488.848 96.0878 490.305 96.0878C486.662 101.388 479.062 99.2878 472.816 99.1878C472.088 99.2878 472.088 99.2878 468.444 100.088C467.403 103.588 467.403 103.588 467.403 108.088C467.299 109.388 467.195 110.688 467.091 112.088C467.091 113.388 466.987 114.688 466.883 116.088C466.674 118.388 466.57 120.688 466.362 123.088C466.05 123.088 465.737 123.088 465.321 123.088C465.321 115.088 465.321 107.188 465.321 99.0878C466.05 99.0878 466.674 99.0878 467.403 99.0878C467.403 98.3878 467.403 97.6878 467.403 97.0878C471.879 95.5878 475.939 95.9878 480.624 95.9878Z" fill="#C54A21"/>
<path d="M506.975 109.05C506.142 109.55 506.142 109.55 501.77 112.05C495.523 116.85 495.836 117.85 496.565 125.05C501.665 129.95 512.804 128.15 519.467 127.05C517.385 131.05 511.139 131.05 506.975 132.05C500.104 132.05 498.23 129.65 493.441 125.05C492.4 121.05 492.4 121.05 495.523 114.05C503.956 107.55 503.956 107.55 506.975 109.05Z" fill="#C64F23"/>
</svg>
