<svg width="345" height="307" viewBox="0 0 345 307" fill="none" xmlns="http://www.w3.org/2000/svg">
<path d="M162.506 0.00816326C168.336 0.00816326 174.27 0.00816326 180.099 0.00816326C235.273 0.00816326 235.273 0.00816327 260.882 0.508163C262.444 0.508163 264.005 0.508163 265.567 0.508163C284.513 1.00816 302.835 4.00816 317.617 16.1082C319.283 17.5082 321.053 18.8082 322.822 20.1082C337.084 33.7082 343.539 49.8082 343.955 69.1082C344.059 71.1082 344.059 73.2082 344.163 75.3082C344.163 76.4082 344.163 76.4082 344.267 82.0082C344.267 84.3082 344.372 86.6082 344.372 89.0082C344.788 115.808 344.892 142.508 344.788 169.208C344.788 176.308 344.788 183.408 344.788 190.508C344.892 196.108 344.892 201.608 344.788 207.208C344.788 211.108 344.892 214.908 344.892 218.808C344.892 221.208 344.788 223.508 344.788 225.908C344.788 227.008 344.788 227.008 344.788 232.108C344.163 263.108 331.255 284.008 303.043 298.908C288.989 305.008 275.248 305.308 260.049 305.408C258.28 305.408 256.614 305.408 254.844 305.408C249.223 305.408 243.705 305.508 238.084 305.508C234.128 305.508 230.172 305.508 226.32 305.608C217.992 305.608 209.768 305.608 201.544 305.708C191.03 305.708 180.62 305.808 170.106 305.908C161.986 305.908 153.866 306.008 145.746 306.008C141.894 306.008 138.042 306.108 134.19 306.108C47.7862 306.608 47.7862 306.608 27.1741 290.108C25.092 288.808 23.1141 287.508 20.928 286.108C1.98148 263.808 -0.100561 242.908 0.00354033 215.208C0.00354033 213.608 0.00354033 212.008 0.00354033 210.308C0.00354033 205.108 0.00354033 199.808 0.00354033 194.608C0.00354033 190.908 0.00354033 187.308 0.00354033 183.608C0.00354033 176.008 0.00354033 168.308 0.00354033 160.608C0.00354033 150.808 0.00354033 141.008 0.00354033 131.208C0.00354033 123.708 0.00354033 116.108 0.00354033 108.608C0.00354033 105.008 0.00354033 101.308 0.00354033 97.7082C0.00354033 92.7082 0.00354033 87.6082 0.00354033 82.6082C0.00354033 81.1082 0.00354033 79.6082 0.00354033 78.1082C0.00354033 48.4082 8.22757 25.5082 35.5022 9.10816C50.5969 2.40816 65.6916 0.808163 82.2438 0.508163C83.9094 0.508163 85.575 0.408163 87.2407 0.408163C112.329 -0.0918367 137.418 0.00816326 162.506 0.00816326Z" fill="#A54527"/>
<path d="M162.506 0.00816326C168.336 0.00816326 174.27 0.00816326 180.099 0.00816326C235.273 0.00816326 235.273 0.00816327 260.882 0.508163C262.444 0.508163 264.005 0.508163 265.567 0.508163C284.513 1.00816 302.835 4.00816 317.617 16.1082C319.283 17.5082 321.053 18.8082 322.822 20.1082C337.084 33.7082 343.539 49.8082 343.955 69.1082C344.059 71.1082 344.059 73.2082 344.163 75.3082C344.163 76.4082 344.163 76.4082 344.267 82.0082C344.267 84.3082 344.372 86.6082 344.372 89.0082C344.788 115.808 344.892 142.508 344.788 169.208C344.788 176.308 344.788 183.408 344.788 190.508C344.892 196.108 344.892 201.608 344.788 207.208C344.788 211.108 344.892 214.908 344.892 218.808C344.892 221.208 344.788 223.508 344.788 225.908C344.788 227.008 344.788 227.008 344.788 232.108C344.163 263.108 331.255 284.008 303.043 298.908C288.989 305.008 275.248 305.308 260.049 305.408C258.28 305.408 256.614 305.408 254.844 305.408C249.223 305.408 243.705 305.508 238.084 305.508C234.128 305.508 230.172 305.508 226.32 305.608C217.992 305.608 209.768 305.608 201.544 305.708C191.03 305.708 180.62 305.808 170.106 305.908C161.986 305.908 153.866 306.008 145.746 306.008C141.894 306.008 138.042 306.108 134.19 306.108C47.7862 306.608 47.7862 306.608 27.1741 290.108C25.092 288.808 23.1141 287.508 20.928 286.108C1.98148 263.808 -0.100561 242.908 0.00354033 215.208C0.00354033 213.608 0.00354033 212.008 0.00354033 210.308C0.00354033 205.108 0.00354033 199.808 0.00354033 194.608C0.00354033 190.908 0.00354033 187.308 0.00354033 183.608C0.00354033 176.008 0.00354033 168.308 0.00354033 160.608C0.00354033 150.808 0.00354033 141.008 0.00354033 131.208C0.00354033 123.708 0.00354033 116.108 0.00354033 108.608C0.00354033 105.008 0.00354033 101.308 0.00354033 97.7082C0.00354033 92.7082 0.00354033 87.6082 0.00354033 82.6082C0.00354033 81.1082 0.00354033 79.6082 0.00354033 78.1082C0.00354033 48.4082 8.22757 25.5082 35.5022 9.10816C50.5969 2.40816 65.6916 0.808163 82.2438 0.508163C83.9094 0.508163 85.575 0.408163 87.2407 0.408163C112.329 -0.0918367 137.418 0.00816326 162.506 0.00816326ZM142.831 44.1082C142.102 44.2082 142.102 44.2082 138.459 44.6082C61.0071 53.8082 61.0071 53.8082 44.4549 86.1082C26.3412 129.508 49.66 209.308 76.4141 245.108C106.187 275.608 150.847 266.408 188.948 259.108C201.648 256.708 212.579 255.808 224.759 260.308C226.529 260.908 228.298 261.508 230.172 262.208C233.503 263.408 236.835 264.708 240.166 265.908C257.447 272.408 257.447 272.408 265.567 266.108C267.961 261.608 266.712 258.208 264.526 254.008C262.444 250.108 262.444 250.108 263.485 246.108C267.232 244.808 267.232 244.808 272.125 243.608C278.059 242.208 283.784 240.608 289.614 238.808C295.34 237.208 298.463 236.908 304.084 238.108C316.264 240.508 316.264 240.508 320.74 236.108C319.699 231.108 319.699 231.108 315.535 227.108C315.223 221.508 315.535 216.108 315.848 210.508C315.431 203.308 313.453 200.008 308.04 195.208C303.564 189.008 304.188 182.508 304.084 175.308C303.46 159.608 302.21 144.108 300.545 128.608C300.337 126.508 300.128 124.508 299.92 122.408C296.797 92.6082 292.113 60.5082 262.86 44.0082C226.424 29.0082 180.828 39.5082 142.831 44.1082Z" fill="#FEF6E3"/>
<path d="M160.44 55.1386C161.377 60.6386 162.106 66.0386 162.73 71.6386C162.938 73.2386 163.147 74.9386 163.355 76.6386C163.771 80.2386 164.188 83.7386 164.604 87.3386C165.229 92.7386 165.853 98.0386 166.582 103.439C166.998 106.939 167.311 110.339 167.727 113.839C167.935 115.439 168.143 117.039 168.352 118.639C168.872 123.139 169.393 127.639 169.809 132.139C169.913 132.939 169.913 132.939 170.33 136.739C171.371 147.739 171.371 147.739 166.686 151.139C163.459 151.939 160.232 152.639 156.901 153.239C154.923 153.639 152.841 154.039 150.759 154.439C148.572 154.839 146.386 155.239 144.096 155.639C141.91 156.039 139.62 156.439 137.329 156.939C132.541 157.739 127.856 158.639 123.067 159.539C115.78 160.839 108.493 162.239 101.206 163.639C96.5216 164.439 91.9411 165.339 87.3607 166.139C85.1745 166.639 82.9884 167.039 80.6982 167.439C79.6571 167.639 79.6571 167.639 74.5562 168.539C72.7864 168.839 71.0167 169.239 69.1429 169.539C64.6665 170.139 64.6665 170.139 59.4614 169.139C57.4835 162.639 56.3384 156.439 55.1933 149.739C54.881 147.539 54.5687 145.339 54.1523 143.139C53.84 141.139 53.5277 139.139 53.2154 137.139C53.0071 135.839 52.7989 134.539 52.5907 133.139C50.3005 110.639 50.3005 86.6386 69.8716 71.1386C87.8812 60.5386 107.869 58.4386 128.377 55.9386C130.459 55.6386 132.541 55.3386 134.727 55.0386C156.172 52.4386 156.172 52.4386 160.44 55.1386Z" fill="#FEE2B0"/>
<path d="M272.87 66.1385C284.217 83.8385 290.255 108.338 288.485 129.138C282.239 133.638 274.952 133.638 267.352 134.638C265.687 134.838 264.021 135.038 262.355 135.338C253.507 136.438 244.658 137.538 235.809 138.538C223.942 140.038 212.178 142.038 200.415 144.138C194.273 145.238 188.547 146.138 182.301 146.138C179.386 141.938 179.386 138.238 178.658 133.238C178.554 132.238 178.554 132.238 177.825 127.038C177.617 124.938 177.304 122.738 176.992 120.538C176.784 118.338 176.472 116.138 176.159 113.938C174.494 100.538 173.244 87.4385 173.14 73.9385C173.036 72.6385 173.036 71.4385 172.932 70.1385C172.203 70.1385 171.579 70.1385 170.85 70.1385C169.289 54.8385 169.289 54.8385 171.891 51.1385C178.033 50.2385 184.071 49.5385 190.213 48.9385C192.087 48.7385 193.857 48.6385 195.73 48.4385C252.57 43.2385 252.57 43.2385 272.87 66.1385Z" fill="#FE7E4D"/>
<path d="M172.932 160.139C174.598 164.939 175.743 169.239 176.68 174.239C176.888 175.039 176.888 175.039 177.721 179.039C178.033 180.739 178.345 182.539 178.762 184.239C181.885 199.939 185.633 215.439 189.797 230.939C192.711 241.639 192.711 241.639 192.711 247.139C185.737 249.839 178.45 250.639 171.058 251.739C169.601 251.939 168.039 252.139 166.478 252.339C154.506 254.139 143.159 255.339 131.083 255.439C128.481 255.439 125.982 255.539 123.276 255.539C101.102 254.339 87.0483 244.239 77.1587 225.539C70.7044 211.839 64.6665 196.139 64.6665 181.139C70.4962 178.739 74.9726 177.339 81.1146 176.139C82.8843 175.839 84.7581 175.439 86.6319 175.039C88.6099 174.739 90.4837 174.339 92.5657 173.939C94.5437 173.539 96.5216 173.139 98.6036 172.739C105.058 171.539 111.512 170.239 117.862 169.039C122.235 168.139 126.607 167.339 130.875 166.439C168.664 159.139 168.664 159.139 172.932 160.139Z" fill="#FE7E4D"/>
<path d="M289.526 143.139C290.359 148.439 290.983 153.739 291.608 159.139C291.712 159.939 291.712 159.939 292.233 164.039C293.898 184.939 293.898 184.939 290.567 188.139C288.277 188.539 285.987 189.039 283.696 189.439C272.349 191.939 265.791 195.839 260.378 206.139C259.753 216.139 260.169 222.939 267.665 230.139C267.665 231.139 267.665 232.139 267.665 233.139C263.709 234.139 259.857 235.239 255.901 236.039C252.049 237.139 252.049 237.139 247.885 240.139C247.885 246.039 248.926 249.739 251.008 255.139C244.97 256.639 241.015 254.439 235.185 252.339C233.103 251.639 231.021 250.939 228.939 250.239C226.961 249.539 224.983 248.839 222.901 248.139C218.112 246.539 214.052 245.239 208.951 244.739C205.204 244.139 205.204 244.139 202.081 240.139C201.04 236.839 200.103 233.639 199.27 230.339C198.749 228.339 198.229 226.339 197.708 224.239C197.084 222.139 196.563 219.939 196.043 217.739C195.522 215.639 194.898 213.439 194.377 211.239C182.718 165.339 182.718 165.339 184.383 157.139C199.27 147.539 229.668 148.239 247.677 145.739C251.945 145.139 256.318 144.539 260.586 143.939C261.835 143.739 261.835 143.739 268.497 142.839C270.788 142.539 273.078 142.139 275.472 141.839C286.715 140.439 286.715 140.439 289.526 143.139Z" fill="#FEE1AF"/>
<path d="M160.44 55.1386C161.377 60.6386 162.106 66.0386 162.73 71.6386C162.938 73.2386 163.147 74.9386 163.355 76.6386C163.771 80.2386 164.188 83.7386 164.604 87.3386C165.229 92.7386 165.853 98.0386 166.582 103.439C166.998 106.939 167.311 110.339 167.727 113.839C167.935 115.439 168.143 117.039 168.352 118.639C168.872 123.139 169.393 127.639 169.809 132.139C169.913 132.939 169.913 132.939 170.33 136.739C171.371 147.739 171.371 147.739 166.686 151.139C163.459 151.939 160.232 152.639 156.901 153.239C154.923 153.639 152.841 154.039 150.759 154.439C148.572 154.839 146.386 155.239 144.096 155.639C141.91 156.039 139.62 156.439 137.329 156.939C132.541 157.739 127.856 158.639 123.067 159.539C115.78 160.839 108.493 162.239 101.206 163.639C96.5216 164.439 91.9411 165.339 87.3607 166.139C85.1745 166.639 82.9884 167.039 80.6982 167.439C79.6571 167.639 79.6571 167.639 74.5562 168.539C72.7864 168.839 71.0167 169.239 69.1429 169.539C64.6665 170.139 64.6665 170.139 59.4614 169.139C57.4835 162.639 56.3384 156.439 55.1933 149.739C54.881 147.539 54.5687 145.339 54.1523 143.139C53.84 141.139 53.5277 139.139 53.2154 137.139C53.0071 135.839 52.7989 134.539 52.5907 133.139C50.3005 110.639 50.3005 86.6386 69.8716 71.1386C87.8812 60.5386 107.869 58.4386 128.377 55.9386C130.459 55.6386 132.541 55.3386 134.727 55.0386C156.172 52.4386 156.172 52.4386 160.44 55.1386ZM122.859 66.3386C122.131 66.5386 122.131 66.5386 118.175 67.0386C97.3544 69.8386 76.0136 73.3386 66.3321 93.3386C59.7737 112.439 63.2091 136.139 68.8306 155.139C72.4741 158.639 83.4048 155.439 88.1935 154.539C90.1714 154.239 92.1493 153.939 94.1273 153.539C96.2093 153.139 98.1872 152.839 100.269 152.439C104.537 151.739 108.806 150.939 112.97 150.239C115.052 149.839 117.134 149.539 119.216 149.139C124.317 148.239 129.418 147.439 134.519 146.539C135.768 146.339 135.768 146.339 142.326 145.239C144.512 144.939 146.803 144.539 149.093 144.139C154.194 143.139 154.194 143.139 158.358 141.139C159.295 129.539 157.109 117.639 155.755 106.039C155.339 102.039 154.923 98.0386 154.506 93.9386C154.194 91.4386 153.986 88.8386 153.673 86.2386C153.465 83.9386 153.153 81.6386 152.945 79.2386C151.175 66.2386 151.175 66.2386 148.989 64.1386C140.14 64.1386 131.604 65.1386 122.859 66.3386Z" fill="#FEF5E1"/>
<path d="M289.526 143.139C290.359 148.439 290.983 153.739 291.608 159.139C291.712 159.939 291.712 159.939 292.233 164.039C293.898 184.939 293.898 184.939 290.567 188.139C285.778 188.539 285.778 188.539 281.198 188.139C279.949 183.339 279.845 178.839 279.636 173.939C279.532 170.339 279.324 166.739 279.116 163.139C279.116 162.339 279.116 162.339 278.908 158.039C278.595 156.739 278.387 155.439 278.075 154.139C271.412 152.839 266.311 153.939 259.649 154.939C257.046 155.339 254.34 155.739 251.633 156.139C250.28 156.339 248.926 156.539 247.469 156.739C243.305 157.339 239.141 158.039 234.977 158.639C199.062 164.039 199.062 164.039 196.876 166.139C197.292 175.939 199.999 185.339 202.289 194.839C202.705 196.439 203.122 198.139 203.538 199.839C209.264 222.939 209.264 222.939 213.532 231.139C228.418 235.339 228.418 235.339 237.475 228.139C245.699 225.039 253.611 224.039 262.46 224.139C267.665 230.139 267.665 230.139 267.665 233.139C263.709 234.139 259.857 235.239 255.901 236.039C252.049 237.139 252.049 237.139 247.885 240.139C247.885 246.039 248.926 249.739 251.008 255.139C244.97 256.639 241.015 254.439 235.185 252.339C233.103 251.639 231.021 250.939 228.939 250.239C226.961 249.539 224.983 248.839 222.901 248.139C218.112 246.539 214.052 245.239 208.951 244.739C205.204 244.139 205.204 244.139 202.081 240.139C201.04 236.839 200.103 233.639 199.27 230.339C198.749 228.339 198.229 226.339 197.708 224.239C197.084 222.139 196.563 219.939 196.043 217.739C195.522 215.639 194.898 213.439 194.377 211.239C182.718 165.339 182.718 165.339 184.383 157.139C199.27 147.539 229.668 148.239 247.677 145.739C251.945 145.139 256.318 144.539 260.586 143.939C261.835 143.739 261.835 143.739 268.497 142.839C270.788 142.539 273.078 142.139 275.472 141.839C286.715 140.439 286.715 140.439 289.526 143.139Z" fill="#FEF5E0"/>
<path d="M291.608 186.139C294.419 187.439 297.125 188.839 299.936 190.139C300.769 190.339 300.769 190.339 305.141 191.139C315.551 202.539 315.655 207.239 315.031 221.939C315.551 227.139 315.551 227.139 320.756 232.139C319.715 237.139 319.715 237.139 317.633 239.139C309.305 239.139 309.305 239.139 304.517 238.039C297.542 236.639 292.129 238.239 285.362 240.139C285.362 239.139 285.362 238.139 285.362 237.139C281.927 236.439 278.387 235.739 274.952 235.139C265.999 231.439 262.876 227.739 259.337 219.139C258.4 206.439 261.002 199.539 271.829 192.139C278.283 189.539 283.592 188.139 290.567 187.139C290.879 186.839 291.296 186.439 291.608 186.139Z" fill="#7C9553"/>
<path d="M88.6099 176.139C88.6099 176.839 88.6099 177.439 88.6099 178.139C86.9442 178.839 85.1745 179.539 83.5089 180.339C78.1997 183.139 78.1997 183.139 77.1587 190.139C81.6351 211.239 89.0263 234.439 110.992 243.539C134.206 248.339 160.128 245.039 182.301 237.139C184.175 233.439 183.134 229.039 182.926 225.039C182.822 224.139 182.822 224.139 182.614 219.439C182.509 218.039 182.405 216.639 182.301 215.139C183.342 215.139 184.383 215.139 185.424 215.139C186.882 219.439 188.131 223.939 189.276 228.339C189.588 229.539 189.588 229.539 191.254 235.739C192.711 242.139 192.711 242.139 192.711 247.139C185.737 249.839 178.45 250.639 171.058 251.739C169.601 251.939 168.039 252.139 166.478 252.339C154.506 254.139 143.159 255.339 131.083 255.439C128.481 255.439 125.982 255.539 123.276 255.539C101.102 254.339 87.0483 244.239 77.1587 225.539C70.7044 211.839 64.6665 196.139 64.6665 181.139C72.8905 177.739 79.6571 176.139 88.6099 176.139Z" fill="#FDF5E0"/>
<path d="M272.87 66.1385C284.217 83.8385 290.255 108.338 288.485 129.138C283.384 132.738 280.365 132.838 274.119 133.338C273.286 133.438 273.286 133.438 268.706 133.838C268.081 133.838 268.081 133.838 264.541 134.138C264.541 133.138 264.541 132.138 264.541 131.138C267.977 129.738 271.412 128.338 274.952 127.138C281.614 120.738 273.078 93.9385 270.892 85.9385C264.854 69.8385 255.068 61.2385 237.475 58.1385C217.592 57.0385 195.002 57.0385 176.055 63.1385C175.743 63.9385 175.743 63.9385 173.973 68.1385C172.932 68.1385 171.891 68.1385 170.85 68.1385C169.184 55.0385 169.184 55.0385 171.891 51.1385C178.033 50.2385 184.071 49.5385 190.213 48.9385C192.087 48.7385 193.857 48.6385 195.73 48.4385C252.57 43.2385 252.57 43.2385 272.87 66.1385Z" fill="#FDF4DF"/>
<path d="M304.1 201.139C308.368 208.039 307.223 213.539 306.911 221.439C307.223 226.139 307.223 226.139 311.387 231.139C311.387 231.839 311.387 232.439 311.387 233.139C304.1 232.139 304.1 232.139 300.561 230.039C295.46 228.039 292.753 228.039 287.34 228.139C277.45 228.139 274.743 226.439 268.706 219.139C266.832 215.539 267.352 212.039 267.665 208.139C276.305 195.739 291.4 191.339 304.1 201.139Z" fill="#90AC65"/>
<path d="M163.563 210.139C165.125 216.039 162.418 217.739 158.358 222.139C148.781 228.339 138.683 228.939 128.168 224.139C122.963 220.139 122.963 220.139 121.922 216.139C125.045 213.139 125.045 213.139 131.292 214.139C132.02 214.439 132.02 214.439 135.976 215.739C145.033 218.539 148.885 216.339 156.276 211.139C158.358 209.139 158.358 209.139 163.563 210.139Z" fill="#FEE7C3"/>
<path d="M212.491 105.139C213.532 105.839 213.532 105.839 218.737 109.139C228.21 112.139 233.623 108.439 241.639 104.139C242.992 104.439 244.346 104.839 245.803 105.139C246.844 109.139 246.844 109.139 241.639 115.139C231.541 120.639 223.421 121.339 212.491 117.139C206.245 113.139 206.245 113.139 204.163 110.139C205.412 104.039 205.412 104.039 212.491 105.139Z" fill="#FEE8C4"/>
<path d="M139.62 120.138C141.077 127.138 138.579 128.338 133.374 133.138C124.004 138.738 117.238 139.938 106.932 135.938C102.143 133.138 102.143 133.138 99.02 129.138C99.3323 127.838 99.7487 126.538 100.061 125.138C104.225 124.138 104.225 124.138 108.597 126.538C116.197 130.538 120.673 129.738 128.168 126.138C128.689 125.538 128.689 125.538 131.396 122.338C134.415 119.138 134.415 119.138 139.62 120.138Z" fill="#A34424"/>
<path d="M253.09 197.139C251.841 203.339 249.967 204.439 244.762 208.139C236.538 210.739 231.021 211.039 223.734 206.339C220.819 203.139 220.819 203.139 221.86 199.139C224.983 198.139 224.983 198.139 228.835 200.139C233.936 202.439 236.226 202.539 241.639 201.139C247.885 196.139 247.885 196.139 253.09 197.139Z" fill="#A34726"/>
<path d="M213.532 82.1385C216.655 86.1385 216.655 86.1385 216.655 92.1385C212.491 96.1385 212.491 96.1385 205.204 95.1385C202.081 91.1385 202.081 91.1385 203.122 84.1385C207.286 81.1385 207.286 81.1385 213.532 82.1385Z" fill="#FEE9C7"/>
<path d="M105.266 101.139C108.389 105.139 108.389 105.139 107.348 111.139C104.225 114.139 104.225 114.139 97.979 114.139C93.8149 110.139 93.8149 110.139 93.8149 104.139C97.979 100.139 97.979 100.139 105.266 101.139Z" fill="#A44426"/>
<path d="M156.276 186.139C160.44 190.139 160.44 190.139 160.44 197.139C156.276 201.139 156.276 201.139 150.03 200.139C146.907 196.139 146.907 196.139 146.907 190.139C151.071 186.139 151.071 186.139 156.276 186.139Z" fill="#FEEAC7"/>
<path d="M135.456 97.1386C137.538 100.139 137.538 100.139 137.538 106.139C133.374 110.139 133.374 110.139 126.086 109.139C124.004 106.139 124.004 106.139 124.004 100.139C128.168 96.1386 128.168 96.1386 135.456 97.1386Z" fill="#A44425"/>
<path d="M242.68 82.1386C245.803 86.1386 245.803 86.1386 244.762 92.1386C240.598 95.1386 240.598 95.1386 234.352 94.1386C231.229 90.1386 231.229 90.1386 231.229 85.1386C235.393 81.1386 235.393 81.1386 242.68 82.1386Z" fill="#FEE9C6"/>
<path d="M128.168 192.139C131.292 195.139 131.292 195.139 131.292 201.139C128.168 205.139 128.168 205.139 121.922 205.139C117.758 201.139 117.758 201.139 117.758 195.139C121.922 191.139 121.922 191.139 128.168 192.139Z" fill="#FEEAC8"/>
<path d="M226.024 177.139C229.147 181.139 229.147 181.139 229.147 186.139C224.983 190.139 224.983 190.139 219.778 190.139C215.614 186.139 215.614 186.139 215.614 180.139C219.778 176.139 219.778 176.139 226.024 177.139Z" fill="#A44727"/>
<path d="M249.967 175.139C254.131 179.139 254.131 179.139 254.131 184.139C249.967 188.139 249.967 188.139 243.721 187.139C241.639 184.139 241.639 184.139 241.639 178.139C243.721 175.139 243.721 175.139 249.967 175.139Z" fill="#A34727"/>
<path d="M317.633 288.139C312.428 298.239 297.021 301.839 286.403 304.139C284.008 304.139 281.614 304.139 279.116 304.139C279.116 303.139 279.116 302.139 279.116 301.139C282.759 300.039 282.759 300.039 287.548 299.139C295.668 297.539 302.33 295.139 309.513 290.939C314.51 288.139 314.51 288.139 317.633 288.139Z" fill="#FEF0D6"/>
</svg>
